<?xml version="1.0" encoding="utf-8"?>
<!-- Generator: Adobe Illustrator 27.4.0, SVG Export Plug-In . SVG Version: 6.00 Build 0)  -->
<svg version="1.1" id="Layer_1" xmlns="http://www.w3.org/2000/svg" xmlns:xlink="http://www.w3.org/1999/xlink" x="0px" y="0px"
	 viewBox="0 0 180 180" style="enable-background:new 0 0 180 180;" xml:space="preserve">
<style type="text/css">
	.st0{fill:#059C3B;}
</style>
<g>
	<g>
		<path class="st0" d="M100.5,85.9l3.8-10.4c-1-0.6-2.4-1-3.9-1c-3.4,0-5.8,1.8-8,7.2v-6.6h-7l-11.4,31.5h10.2l6.3-17.4
			C94.1,78.8,99.9,83.1,100.5,85.9"/>
		<path class="st0" d="M158.2,104.7h0.4c0,0,0.1,0,0.1,0c0,0,0-0.1,0-0.1c0,0,0-0.1,0-0.1c0,0-0.1,0-0.1,0h-0.4L158.2,104.7z
			 M159,104.8c0,0.1-0.1,0.1-0.2,0.1l0.3,0.5h-0.4l-0.3-0.5h-0.3l0,0.5h-0.3l0-1.3h0.8c0.1,0,0.2,0,0.3,0.1c0.1,0.1,0.1,0.2,0.1,0.3
			C159,104.6,159,104.7,159,104.8 M159,105.8c0.2-0.1,0.3-0.2,0.4-0.4c0.1-0.2,0.2-0.4,0.2-0.6c0-0.2-0.1-0.4-0.2-0.6
			c-0.1-0.2-0.2-0.3-0.4-0.4c-0.2-0.1-0.4-0.2-0.6-0.2c-0.2,0-0.4,0.1-0.6,0.2c-0.2,0.1-0.3,0.2-0.4,0.4c-0.1,0.2-0.2,0.4-0.2,0.6
			c0,0.2,0.1,0.4,0.2,0.6c0.1,0.2,0.2,0.3,0.4,0.4c0.2,0.1,0.4,0.2,0.6,0.2C158.6,106,158.8,105.9,159,105.8 M159.2,103.6
			c0.2,0.1,0.4,0.3,0.5,0.5c0.1,0.2,0.2,0.5,0.2,0.7c0,0.3-0.1,0.5-0.2,0.7c-0.1,0.2-0.3,0.4-0.5,0.5c-0.2,0.1-0.5,0.2-0.7,0.2
			c-0.3,0-0.5-0.1-0.7-0.2c-0.2-0.1-0.4-0.3-0.5-0.5c-0.1-0.2-0.2-0.5-0.2-0.7c0-0.3,0.1-0.5,0.2-0.7c0.1-0.2,0.3-0.4,0.5-0.5
			c0.2-0.1,0.5-0.2,0.7-0.2C158.7,103.4,158.9,103.4,159.2,103.6"/>
		<path class="st0" d="M44.7,97c3.6-10-10.1-16.5-7.6-23.3c0.7-1.9,2.1-3,4.4-3c3.4,0,6.8,2.7,8.2,8.5l4.2-11.5
			c-2.7-2.6-5.8-3.8-11.1-3.8c-7.2,0-13,3.3-15.5,10c-3.9,10.7,9.6,17.3,7.3,23.5c-0.8,2.3-2.5,3.2-4.9,3.2c-3.2,0-7.2-3.6-9-9.3
			l-4.5,12.3c2.7,3,6.5,4.1,11.1,4.1C36,107.8,42,104.4,44.7,97"/>
		<path class="st0" d="M65.3,75.2l-10.3,0l-15.5,42.7h10.2l13.4-37.1c4.3,0,6,3.8,3.2,11.4c-2,5.4-5.2,10.8-11.6,14.6
			c9.7,0,17.9-3.8,22.1-15.3C81.2,79.9,74.2,75.2,65.3,75.2"/>
		<path class="st0" d="M113.9,75.8c3.8,0,6.9-3.1,6.9-6.9c0-3.8-3.1-6.9-6.9-6.9c-3.8,0-6.9,3.1-6.9,6.9
			C107,72.7,110.1,75.8,113.9,75.8"/>
		<path class="st0" d="M155,74.6c-9.7,0-16.2,6.5-19.7,16.2c-3.2,8.7-0.3,16.4,8.7,16.4c7.8,0,13.8-4.9,16.6-10.5
			c-3.2,2.6-7.2,4.7-10.7,4.7c-4.7,0-6.1-5.2-4.1-10.8c2.5-6.8,6-12,8.6-12c3.4,0,0.3,9.6-8.1,14.1c9.5,0,14.8-2.6,17.1-8.8
			C165.2,78.9,161.3,74.6,155,74.6"/>
		<path class="st0" d="M140.6,75.1H135l3.6-9.9l-5,0c-3.3,7.8-9.4,12.1-15.9,13.2l-1.4,3.7h5.9l-8.9,24.7h10.2l8.9-24.7h5.6
			L140.6,75.1z"/>
		<path class="st0" d="M106.1,76.6l-10.9,30h10.2l10.2-28.1C112.3,78.7,109.2,78.1,106.1,76.6"/>
	</g>
</g>
</svg>
